%
M48
M72
T01C0.02756
T02C0.03200
T03C0.03937
T04C0.04000
T05C0.04724
T06C0.11800
%
T01
X226000Y18579
X226000Y28421
T02
X219000Y108500
X183000Y108500
X146000Y135500
X136000Y135500
X96000Y120500
X86000Y120500
X76000Y120500
X51000Y135500
X41000Y135500
X31000Y135500
X21000Y135500
X11000Y135500
X11000Y171500
X21000Y171500
X31000Y171500
X41000Y171500
X51000Y171500
X76000Y156500
X86000Y156500
X96000Y156500
X136000Y171500
X146000Y171500
T03
X181000Y93500
X181000Y78500
X221000Y78500
X221000Y93500
T04
X26000Y13500
X36000Y13500
X46000Y13500
X56000Y13500
X66000Y13500
X76000Y13500
X86000Y13500
X96000Y13500
X111000Y13500
X121000Y13500
X131000Y13500
X141000Y13500
X151000Y13500
X161000Y13500
X171000Y13500
X181000Y13500
X191000Y13500
X201000Y13500
X129900Y30700
X112100Y30700
X99900Y30700
X82100Y30700
X69900Y30700
X52100Y30700
X39900Y30700
X22100Y30700
X22100Y56300
X21000Y68500
X31000Y68500
X41000Y68500
X51000Y68500
X61000Y68500
X76000Y68500
X86000Y68500
X96000Y68500
X106000Y68500
X99900Y56300
X112100Y56300
X129900Y56300
X106000Y83500
X96000Y83500
X86000Y83500
X76000Y83500
X61000Y83500
X51000Y83500
X41000Y83500
X31000Y83500
X21000Y83500
X39900Y56300
X52100Y56300
X69900Y56300
X82100Y56300
X108500Y136000
X108500Y146000
X106000Y183500
X96000Y183500
X86000Y183500
X76000Y183500
X66000Y183500
X56000Y183500
X46000Y183500
X36000Y183500
X26000Y183500
X16000Y183500
X26000Y203500
X36000Y203500
X46000Y203500
X56000Y203500
X66000Y203500
X76000Y203500
X96000Y203500
X106000Y203500
X116000Y203500
X126000Y203500
X136000Y203500
X146000Y203500
X156000Y203500
X166000Y203500
X166000Y183500
X156000Y183500
X146000Y183500
X136000Y183500
X126000Y183500
X116000Y183500
X231000Y108500
X231000Y98500
T05
X216000Y57280
X216000Y43500
X176000Y43500
X176000Y57280
T06
X187063Y133500
X210685Y133500
X198874Y152004
X187063Y183500
X210685Y183500
X198874Y202004
M30
