G75*
%MOIN*%
%OFA0B0*%
%FSLAX25Y25*%
%IPPOS*%
%LPD*%
%AMOC8*
5,1,8,0,0,1.08239X$1,22.5*
%
%ADD10C,0.07400*%
%ADD11OC8,0.06600*%
%ADD12C,0.17000*%
%ADD13R,0.08000X0.08000*%
%ADD14C,0.08000*%
%ADD15C,0.07800*%
%ADD16R,0.06500X0.06500*%
%ADD17C,0.06500*%
%ADD18C,0.00600*%
%ADD19C,0.01200*%
D10*
X0026000Y0013500D03*
X0036000Y0013500D03*
X0046000Y0013500D03*
X0056000Y0013500D03*
X0066000Y0013500D03*
X0076000Y0013500D03*
X0086000Y0013500D03*
X0096000Y0013500D03*
X0111000Y0013500D03*
X0121000Y0013500D03*
X0131000Y0013500D03*
X0141000Y0013500D03*
X0151000Y0013500D03*
X0161000Y0013500D03*
X0171000Y0013500D03*
X0181000Y0013500D03*
X0191000Y0013500D03*
X0201000Y0013500D03*
X0129900Y0030700D03*
X0112100Y0030700D03*
X0099900Y0030700D03*
X0082100Y0030700D03*
X0069900Y0030700D03*
X0052100Y0030700D03*
X0039900Y0030700D03*
X0022100Y0030700D03*
X0022100Y0056300D03*
X0021000Y0068500D03*
X0031000Y0068500D03*
X0041000Y0068500D03*
X0051000Y0068500D03*
X0061000Y0068500D03*
X0076000Y0068500D03*
X0086000Y0068500D03*
X0096000Y0068500D03*
X0106000Y0068500D03*
X0099900Y0056300D03*
X0112100Y0056300D03*
X0129900Y0056300D03*
X0106000Y0083500D03*
X0096000Y0083500D03*
X0086000Y0083500D03*
X0076000Y0083500D03*
X0061000Y0083500D03*
X0051000Y0083500D03*
X0041000Y0083500D03*
X0031000Y0083500D03*
X0021000Y0083500D03*
X0039900Y0056300D03*
X0052100Y0056300D03*
X0069900Y0056300D03*
X0082100Y0056300D03*
X0108500Y0136000D03*
X0108500Y0146000D03*
X0106000Y0183500D03*
X0096000Y0183500D03*
X0086000Y0183500D03*
X0076000Y0183500D03*
X0066000Y0183500D03*
X0056000Y0183500D03*
X0046000Y0183500D03*
X0036000Y0183500D03*
X0026000Y0183500D03*
X0016000Y0183500D03*
X0026000Y0203500D03*
X0036000Y0203500D03*
X0046000Y0203500D03*
X0056000Y0203500D03*
X0066000Y0203500D03*
X0076000Y0203500D03*
X0096000Y0203500D03*
X0106000Y0203500D03*
X0116000Y0203500D03*
X0126000Y0203500D03*
X0136000Y0203500D03*
X0146000Y0203500D03*
X0156000Y0203500D03*
X0166000Y0203500D03*
X0166000Y0183500D03*
X0156000Y0183500D03*
X0146000Y0183500D03*
X0136000Y0183500D03*
X0126000Y0183500D03*
X0116000Y0183500D03*
X0231000Y0108500D03*
X0231000Y0098500D03*
D11*
X0219000Y0108500D03*
X0183000Y0108500D03*
X0146000Y0135500D03*
X0136000Y0135500D03*
X0096000Y0120500D03*
X0086000Y0120500D03*
X0076000Y0120500D03*
X0051000Y0135500D03*
X0041000Y0135500D03*
X0031000Y0135500D03*
X0021000Y0135500D03*
X0011000Y0135500D03*
X0011000Y0171500D03*
X0021000Y0171500D03*
X0031000Y0171500D03*
X0041000Y0171500D03*
X0051000Y0171500D03*
X0076000Y0156500D03*
X0086000Y0156500D03*
X0096000Y0156500D03*
X0136000Y0171500D03*
X0146000Y0171500D03*
D12*
X0187063Y0183500D03*
X0210685Y0183500D03*
X0198874Y0202004D03*
X0198874Y0152004D03*
X0187063Y0133500D03*
X0210685Y0133500D03*
D13*
X0216000Y0043500D03*
X0176000Y0043500D03*
D14*
X0176000Y0057280D03*
X0216000Y0057280D03*
D15*
X0221000Y0078500D03*
X0221000Y0093500D03*
X0181000Y0093500D03*
X0181000Y0078500D03*
D16*
X0226000Y0018579D03*
D17*
X0226000Y0028421D03*
D18*
X0225600Y0028700D01*
X0171000Y0013700D02*
X0171000Y0013500D01*
X0161000Y0013500D02*
X0160800Y0013100D01*
X0157200Y0013100D01*
X0153000Y0008900D01*
X0138600Y0008900D01*
X0135600Y0011900D01*
X0135600Y0016100D01*
X0112200Y0039500D01*
X0112200Y0056300D01*
X0112100Y0056300D01*
X0111600Y0056300D01*
X0101400Y0066500D01*
X0101400Y0070100D01*
X0098400Y0073100D01*
X0089400Y0073100D01*
X0081000Y0081500D01*
X0081000Y0085100D01*
X0051000Y0115100D01*
X0051000Y0135500D01*
X0041000Y0135500D02*
X0040800Y0135500D01*
X0040800Y0083900D01*
X0041000Y0083500D01*
X0041400Y0083300D01*
X0044400Y0083300D01*
X0054600Y0073100D01*
X0064800Y0073100D01*
X0081600Y0056300D01*
X0082100Y0056300D01*
X0082200Y0056300D01*
X0105000Y0033500D01*
X0105000Y0031100D01*
X0111000Y0025100D01*
X0111000Y0013500D01*
X0096000Y0013500D02*
X0096000Y0013700D01*
X0092400Y0013700D01*
X0075000Y0031100D01*
X0075000Y0033500D01*
X0052200Y0056300D01*
X0052100Y0056300D01*
X0054000Y0061100D02*
X0058800Y0056300D01*
X0069900Y0056300D01*
X0079200Y0068300D02*
X0084000Y0063500D01*
X0096000Y0063500D01*
X0096000Y0068500D01*
X0096000Y0063500D02*
X0099600Y0059900D01*
X0099600Y0056300D01*
X0099900Y0056300D01*
X0116400Y0058700D02*
X0123600Y0051500D01*
X0123600Y0029900D01*
X0139800Y0013700D01*
X0141000Y0013700D01*
X0141000Y0013500D01*
X0150600Y0013700D02*
X0151000Y0013500D01*
X0150600Y0013700D02*
X0150600Y0016700D01*
X0124800Y0042500D01*
X0124800Y0166700D01*
X0135600Y0177500D01*
X0135600Y0183500D01*
X0136000Y0183500D01*
X0144600Y0188300D02*
X0151200Y0188300D01*
X0156000Y0183500D01*
X0156000Y0175100D01*
X0146400Y0165500D01*
X0146400Y0135500D01*
X0146000Y0135500D01*
X0108500Y0146000D02*
X0108500Y0171000D01*
X0101000Y0178500D01*
X0101000Y0198500D01*
X0096000Y0203500D01*
X0106000Y0203500D02*
X0106200Y0203300D01*
X0115800Y0203300D01*
X0116000Y0203500D01*
X0116400Y0203300D01*
X0126000Y0193700D01*
X0126000Y0183500D01*
X0116400Y0183500D02*
X0116000Y0183500D01*
X0116400Y0183500D02*
X0116400Y0058700D01*
X0079200Y0068300D02*
X0076200Y0068300D01*
X0076000Y0068500D01*
X0076200Y0068900D01*
X0076200Y0083300D01*
X0076000Y0083500D01*
X0051000Y0068500D02*
X0051000Y0068300D01*
X0046200Y0063500D01*
X0039000Y0063500D01*
X0036000Y0066500D01*
X0036000Y0070100D01*
X0026400Y0079700D01*
X0026400Y0085700D01*
X0035400Y0094700D01*
X0035400Y0173300D01*
X0031200Y0177500D01*
X0031200Y0185300D01*
X0026400Y0190100D01*
X0026400Y0203300D01*
X0026000Y0203500D01*
X0024000Y0208100D02*
X0006600Y0190700D01*
X0006600Y0064700D01*
X0036000Y0035300D01*
X0042000Y0035300D01*
X0047400Y0029900D01*
X0047400Y0028700D01*
X0062400Y0013700D01*
X0066000Y0013700D01*
X0066000Y0013500D01*
X0064200Y0025700D02*
X0038400Y0051500D01*
X0027000Y0051500D01*
X0022200Y0056300D01*
X0022100Y0056300D01*
X0031200Y0064700D02*
X0039600Y0056300D01*
X0039900Y0056300D01*
X0040200Y0056300D01*
X0045000Y0061100D01*
X0054000Y0061100D01*
X0041000Y0068500D02*
X0040800Y0068900D01*
X0036000Y0073700D01*
X0036000Y0085100D01*
X0036600Y0085700D01*
X0036600Y0173300D01*
X0040800Y0177500D01*
X0040800Y0185300D01*
X0036000Y0190100D01*
X0036000Y0203500D01*
X0040800Y0202100D02*
X0040800Y0205700D01*
X0038400Y0208100D01*
X0024000Y0208100D01*
X0040800Y0202100D02*
X0055800Y0187100D01*
X0055800Y0183500D01*
X0056000Y0183500D01*
X0051000Y0171500D02*
X0041000Y0171500D01*
X0031000Y0171500D02*
X0021000Y0171500D01*
X0011400Y0161900D01*
X0011400Y0135500D01*
X0011000Y0135500D01*
X0011400Y0135500D02*
X0011400Y0086300D01*
X0021000Y0076700D01*
X0021000Y0068500D01*
X0031000Y0068500D02*
X0021000Y0078500D01*
X0021000Y0083500D01*
X0031000Y0068500D02*
X0031200Y0068300D01*
X0031200Y0064700D01*
X0064200Y0025700D02*
X0070800Y0025700D01*
X0082800Y0013700D01*
X0085800Y0013700D01*
X0086000Y0013500D01*
X0086000Y0120500D02*
X0076000Y0120500D01*
X0086000Y0120500D02*
X0096000Y0120500D01*
X0136000Y0171500D02*
X0146000Y0171500D01*
X0146400Y0171500D01*
X0146400Y0183500D01*
X0146000Y0183500D01*
X0144600Y0188300D02*
X0129600Y0203300D01*
X0126000Y0203300D01*
X0126000Y0203500D01*
X0026000Y0183500D02*
X0025800Y0183500D01*
X0013800Y0171500D01*
X0011000Y0171500D01*
D19*
X0108500Y0136000D02*
X0108500Y0106000D01*
X0086000Y0083500D01*
X0171000Y0083500D02*
X0171000Y0167437D01*
X0187063Y0183500D01*
X0198874Y0195311D02*
X0210685Y0183500D01*
X0210685Y0163815D01*
X0198874Y0152004D01*
X0198874Y0145311D01*
X0210685Y0133500D01*
X0187063Y0133500D02*
X0187063Y0112563D01*
X0183000Y0108500D01*
X0183000Y0095500D01*
X0181000Y0093500D01*
X0171000Y0083500D02*
X0176000Y0078500D01*
X0181000Y0078500D01*
X0176000Y0057280D02*
X0189780Y0043500D01*
X0216000Y0043500D01*
X0216000Y0057280D02*
X0221000Y0062280D01*
X0221000Y0078500D01*
X0221000Y0093500D01*
X0226000Y0093500D01*
X0231000Y0098500D01*
X0221000Y0093500D02*
X0219000Y0095500D01*
X0219000Y0108500D01*
X0176000Y0043500D02*
X0188400Y0031100D01*
X0171000Y0013700D01*
X0188400Y0031100D02*
X0190800Y0028700D01*
X0225600Y0028700D01*
X0166000Y0183500D02*
X0166000Y0188500D01*
X0181000Y0203500D01*
X0197378Y0203500D01*
X0198874Y0202004D01*
X0198874Y0195311D01*
M02*
